<?xml version="1.0" encoding="UTF-8" standalone="no"?>
<svg
   xmlns:dc="http://purl.org/dc/elements/1.1/"
   xmlns:cc="http://creativecommons.org/ns#"
   xmlns:rdf="http://www.w3.org/1999/02/22-rdf-syntax-ns#"
   xmlns:svg="http://www.w3.org/2000/svg"
   xmlns="http://www.w3.org/2000/svg"
   xmlns:sodipodi="http://sodipodi.sourceforge.net/DTD/sodipodi-0.dtd"
   xmlns:inkscape="http://www.inkscape.org/namespaces/inkscape"
   width="64"
   height="64"
   id="svg2985"
   version="1.1"
   inkscape:version="0.48.2 r9819"
   sodipodi:docname="GAKUEngine.svg">
  <defs
     id="defs3019" />
  <sodipodi:namedview
     pagecolor="#ffffff"
     bordercolor="#666666"
     borderopacity="1"
     objecttolerance="10"
     gridtolerance="10"
     guidetolerance="10"
     inkscape:pageopacity="0"
     inkscape:pageshadow="2"
     inkscape:window-width="2560"
     inkscape:window-height="1392"
     id="namedview3017"
     showgrid="false"
     inkscape:zoom="16"
     inkscape:cx="29.578134"
     inkscape:cy="33.023261"
     inkscape:window-x="0"
     inkscape:window-y="0"
     inkscape:window-maximized="1"
     inkscape:current-layer="g2993" />
  <metadata
     id="metadata3136">image/svg+xml<rdf:RDF>
  <cc:Work
     rdf:about="">
    <dc:format>image/svg+xml</dc:format>
    <dc:type
       rdf:resource="http://purl.org/dc/dcmitype/StillImage" />
  </cc:Work>
</rdf:RDF>
</metadata>
  <g
     id="g2988">
    <title
       id="title2990">GAKU Engine</title>
    <rect
       fill="none"
       id="canvas_background"
       height="402"
       width="582"
       y="-1"
       x="-1" />
  </g>
  <g
     id="g2993">
    <title
       id="title2995">GAKU Engine</title>
    <g
       id="GAKU_Engine"
       inkscape:label="#g3038">
      <g
         transform="matrix(0.06446526,0,0,0.06446526,-29.879882,-2.8054521)"
         id="g4021"
         display="inline" />
      <g
         inkscape:label="#g3021"
         id="cogs">
        <path
           style="fill:#999999;fill-opacity:1"
           fill="#727a7f"
           id="path4617"
           d="m32.002739,1.000013c0,0 -1.33691,-0.001757 -2.042742,0.032233c-0.156805,0.007551 -0.172373,0.006038 -0.201454,0.026189c-0.063316,0.113677 -0.208939,0.545077 -0.560041,1.978278c-0.385643,1.519538 -0.743366,2.600771 -0.743366,2.600771c-0.276279,0.777037 -0.465359,0.886397 -0.465359,0.886397c0,0 -0.149193,0.06479 -0.43409,0.138864l4.447979,-0.003719l4.440647,0.002817c-0.245014,-0.051282 -0.394428,-0.137959 -0.394428,-0.137959c0,0 -0.191288,-0.109361 -0.467373,-0.886397c0,0 -0.355988,-1.081232 -0.741348,-2.60077c-0.350849,-1.433201 -0.494755,-1.864601 -0.558025,-1.978278c-0.02906,-0.020151 -0.04678,-0.018638 -0.203468,-0.026189c-0.705318,-0.033989 -2.076931,-0.032233 -2.076931,-0.032233l0,-0.000003z" />
        <path
           style="fill:#999999;fill-opacity:1"
           fill="#727a7f"
           d="m16.502382,5.151853c0,0 -1.158676,0.666934 -1.752954,1.049286c-0.132019,0.08494 -0.146258,0.091417 -0.161367,0.123407c0.002003,0.130106 0.091595,0.576519 0.504127,1.99326c0.425796,1.508779 0.656614,2.624016 0.656614,2.624016c0.149253,0.811073 0.040184,1.000321 0.040184,1.000321c0,0 -0.096807,0.130707 -0.3065,0.337306l3.850202,-2.22721l3.847124,-2.217885c-0.237829,0.078094 -0.410561,0.077737 -0.410561,0.077737c0,0 -0.220348,0.00094 -0.847956,-0.533956c0,0 -0.848915,-0.75838 -1.942413,-1.881659c-1.020447,-1.065763 -1.360773,-1.367413 -1.472404,-1.434226c-0.035242,-0.00292 -0.049831,0.007249 -0.189302,0.079054c-0.627821,0.323226 -1.814793,1.010551 -1.814793,1.010551l0,-0.000003z"
           id="path3129" />
        <path
           style="fill:#999999;fill-opacity:1"
           fill="#727a7f"
           id="path3131"
           d="m5.154595,16.497633c0,0 -0.669976,1.156918 -0.993459,1.785183c-0.071858,0.139572 -0.080956,0.152298 -0.078043,0.187559c0.066786,0.111673 0.367582,0.453484 1.433215,1.474152c1.123141,1.093742 1.880651,1.944155 1.880651,1.944155c0.534793,0.627785 0.534962,0.846214 0.534962,0.846214c0,0 -0.018485,0.161596 -0.096784,0.445364l2.22077,-3.853922l2.222761,-3.844306c-0.166916,0.186547 -0.316689,0.272602 -0.316689,0.272602c0,0 -0.190354,0.110989 -1.001328,-0.038442c0,0 -1.114367,-0.232319 -2.62301,-0.658357c-1.416611,-0.412757 -1.862166,-0.503828 -1.992249,-0.505874c-0.031981,0.015091 -0.039531,0.031194 -0.124413,0.163115c-0.382098,0.593831 -1.06638,1.782558 -1.066384,1.782557z" />
        <path
           style="fill:#999999;fill-opacity:1"
           fill="#727a7f"
           d="m1.000014,31.997257c0,0 -0.001761,1.33691 0.032233,2.042744c0.007551,0.156803 0.00604,0.172371 0.026189,0.201454c0.113676,0.063316 0.545076,0.208939 1.978278,0.56004c1.519539,0.385639 2.600768,0.743366 2.600768,0.743366c0.777038,0.276279 0.886397,0.465359 0.886397,0.465359c0,0 0.064792,0.149193 0.138865,0.43409l-0.003718,-4.447977l0.002817,-4.440647c-0.051284,0.245016 -0.137961,0.394426 -0.137961,0.394426c0,0 -0.109359,0.191294 -0.886397,0.467373c0,0 -1.081233,0.355989 -2.60077,0.74135c-1.433201,0.350849 -1.8646,0.494757 -1.978278,0.558025c-0.020149,0.029058 -0.018638,0.04678 -0.026189,0.203468c-0.033989,0.705318 -0.032233,2.076929 -0.032233,2.076929l-0.000002,0z"
           id="path3133" />
        <path
           style="fill:#999999;fill-opacity:1"
           fill="#727a7f"
           id="path3135"
           d="m5.151856,47.497616c0,0 0.666931,1.158676 1.049284,1.752949c0.084941,0.132023 0.091417,0.146263 0.12341,0.161369c0.130103,-0.002007 0.576516,-0.091591 1.993257,-0.504124c1.50878,-0.425797 2.624017,-0.656616 2.624017,-0.656616c0.811072,-0.14925 1.00032,-0.040184 1.00032,-0.040184c0,0 0.13071,0.096809 0.337306,0.306503l-2.227207,-3.850204l-2.217886,-3.847122c0.078095,0.237827 0.077737,0.410561 0.077737,0.410561c0,0 0.00094,0.220345 -0.533955,0.847954c0,0 -0.75838,0.848915 -1.881659,1.942413c-1.065766,1.020447 -1.367412,1.360775 -1.434227,1.472404c-0.002923,0.035244 0.007248,0.049831 0.079055,0.189304c0.323224,0.627819 1.010548,1.814793 1.010548,1.814793z" />
        <path
           style="fill:#999999;fill-opacity:1"
           fill="#727a7f"
           d="m16.497633,58.845398c0,0 1.156916,0.669979 1.785181,0.993454c0.139572,0.071865 0.152302,0.080959 0.187559,0.078049c0.111673,-0.066792 0.453485,-0.36758 1.474152,-1.43322c1.093742,-1.123135 1.944157,-1.880646 1.944157,-1.880646c0.627785,-0.534798 0.846212,-0.534966 0.846212,-0.534966c0,0 0.161596,0.01849 0.445364,0.096786l-3.853922,-2.220764l-3.844303,-2.222767c0.186545,0.16692 0.2726,0.316689 0.2726,0.316689c0,0 0.110989,0.190353 -0.038442,1.001328c0,0 -0.232317,1.114372 -0.658353,2.623009c-0.41276,1.416611 -0.503832,1.862171 -0.505877,1.992252c0.015093,0.031979 0.031194,0.039532 0.163115,0.124416c0.593833,0.382095 1.782557,1.06638 1.782557,1.06638z"
           id="path3137" />
        <path
           style="fill:#999999;fill-opacity:1"
           fill="#727a7f"
           id="path3139"
           d="m31.997259,62.999985c0,0 1.336905,0.00174 2.042742,-0.032234c0.156803,-0.007553 0.172375,-0.006058 0.201454,-0.026192c0.063316,-0.113674 0.208939,-0.545074 0.560043,-1.978279c0.385639,-1.519535 0.743359,-2.600769 0.743359,-2.600769c0.276279,-0.777039 0.465363,-0.886398 0.465363,-0.886398c0,0 0.149193,-0.064785 0.434093,-0.138859l-4.447979,0.003716l-4.440647,-0.002815c0.24501,0.051285 0.394424,0.137959 0.394424,0.137959c0,0 0.191296,0.109356 0.467369,0.886398c0,0 0.355991,1.08123 0.741356,2.600769c0.350847,1.433201 0.494753,1.864605 0.558023,1.978279c0.02906,0.020145 0.046778,0.018639 0.203468,0.026184c0.70532,0.033997 2.076931,0.032234 2.076931,0.032234l0,0.000008z" />
        <path
           style="fill:#999999;fill-opacity:1"
           fill="#727a7f"
           d="m47.502369,5.154593c0,0 -1.156918,-0.669975 -1.785179,-0.993457c-0.13958,-0.071862 -0.152302,-0.080957 -0.187565,-0.078046c-0.111668,0.066791 -0.453484,0.367582 -1.474148,1.433218c-1.093746,1.123138 -1.944164,1.880651 -1.944164,1.880651c-0.627781,0.534793 -0.84621,0.534963 -0.84621,0.534963c0,0 -0.161594,-0.018486 -0.445362,-0.096786l3.853916,2.220768l3.844311,2.222764c-0.18655,-0.166919 -0.272602,-0.316689 -0.272602,-0.316689c0,0 -0.110981,-0.190356 0.038441,-1.001329c0,0 0.232319,-1.114368 0.658356,-2.623008c0.412758,-1.416613 0.50383,-1.86217 0.505882,-1.992251c-0.015091,-0.031981 -0.0312,-0.039531 -0.16312,-0.124415c-0.593834,-0.382096 -1.782562,-1.06638 -1.782562,-1.06638l0.000008,-0.000004z"
           id="path3141" />
        <path
           style="fill:#999999;fill-opacity:1"
           fill="#727a7f"
           id="path3143"
           d="m58.848145,16.50238c0,0 -0.666927,-1.158675 -1.049282,-1.752953c-0.084942,-0.132021 -0.091419,-0.14626 -0.123405,-0.161369c-0.130112,0.00201 -0.576523,0.091595 -1.993263,0.504128c-1.508778,0.425796 -2.624023,0.65661 -2.624023,0.65661c-0.811066,0.149253 -1.00032,0.040187 -1.00032,0.040187c0,0 -0.130703,-0.096807 -0.337303,-0.306501l2.227215,3.850202l2.217884,3.847126c-0.078094,-0.237833 -0.07774,-0.410563 -0.07774,-0.410563c0,0 -0.000908,-0.220345 0.533962,-0.847956c0,0 0.758369,-0.848913 1.881649,-1.942413c1.065769,-1.020443 1.367416,-1.360773 1.434235,-1.472403c0.002895,-0.03524 -0.007256,-0.049833 -0.079056,-0.189304c-0.323231,-0.627821 -1.010559,-1.814793 -1.010559,-1.814793l0.000008,0.000002z" />
        <path
           style="fill:#999999;fill-opacity:1"
           fill="#727a7f"
           d="m62.999985,32.002739c0,0 0.00174,-1.33691 -0.03223,-2.04274c-0.007549,-0.156807 -0.006062,-0.172375 -0.026192,-0.201458c-0.113678,-0.063311 -0.545074,-0.208935 -1.978275,-0.56004c-1.519539,-0.385641 -2.600773,-0.743372 -2.600773,-0.743372c-0.777035,-0.276276 -0.886395,-0.465355 -0.886395,-0.465355c0,0 -0.064796,-0.149189 -0.138863,-0.43409l0.003738,4.447973l-0.002842,4.440651c0.051285,-0.245014 0.137959,-0.394428 0.137959,-0.394428c0,0 0.10939,-0.191277 0.886402,-0.467369c0,0 1.081226,-0.355995 2.600773,-0.741352c1.433193,-0.350845 1.864597,-0.494755 1.978275,-0.558022c0.02013,-0.029068 0.018635,-0.046783 0.026192,-0.203468c0.033985,-0.705326 0.032223,-2.076935 0.032223,-2.076935l0.000008,0.000004z"
           id="path3145" />
        <path
           style="fill:#999999;fill-opacity:1"
           fill="#727a7f"
           id="path3147"
           d="m58.845406,47.502365c0,0 0.669964,-1.156929 0.993454,-1.785183c0.071869,-0.139572 0.080944,-0.152313 0.078056,-0.187561c-0.066795,-0.111671 -0.367584,-0.453484 -1.433228,-1.474148c-1.123138,-1.093746 -1.880646,-1.94416 -1.880646,-1.94416c-0.534798,-0.627785 -0.534962,-0.84621 -0.534962,-0.84621c0,0 0.018478,-0.161598 0.096786,-0.445366l-2.220757,3.853931l-2.222775,3.844296c0.166916,-0.18655 0.316681,-0.272602 0.316681,-0.272602c0,0 0.190376,-0.110958 1.001331,0.038445c0,0 1.114368,0.232311 2.623009,0.658352c1.416615,0.412758 1.862175,0.50383 1.992245,0.505878c0.031982,-0.01511 0.039543,-0.031193 0.12442,-0.163116c0.382103,-0.59383 1.066376,-1.782562 1.066376,-1.782562l0.000008,0.000008z" />
        <path
           style="fill:#999999;fill-opacity:1"
           fill="#727a7f"
           d="m47.497616,58.848141c0,0 1.158669,-0.666946 1.752956,-1.049282c0.132023,-0.084942 0.146252,-0.091434 0.161369,-0.123417c-0.001999,-0.130096 -0.091591,-0.576511 -0.504131,-1.993259c-0.4258,-1.508778 -0.656605,-2.624012 -0.656605,-2.624012c-0.149258,-0.811073 -0.040192,-1.00032 -0.040192,-1.00032c0,0 0.096802,-0.130711 0.306503,-0.337307l-3.850193,2.227226l-3.847134,2.217873c0.237835,-0.078098 0.410557,-0.077744 0.410557,-0.077744c0,0 0.220341,-0.000904 0.847954,0.533958c0,0 0.848919,0.758373 1.942417,1.88166c1.020443,1.065762 1.360775,1.367413 1.472401,1.434227c0.035248,0.002899 0.049839,-0.007252 0.189304,-0.079052c0.627831,-0.323231 1.814793,-1.010559 1.814793,-1.010559l0,0.000008z"
           id="path3149" />
        <path
           style="fill:#afafb0;fill-opacity:1"
           fill="#788289"
           stroke-width="0.1"
           stroke-miterlimit="4"
           id="cog_base"
           d="m57.73431,32c0,14.210648 -11.520008,25.730663 -25.730659,25.730663c-14.210646,0 -25.73066,-11.520012 -25.73066,-25.730663c0,-14.210653 11.520014,-25.730664 25.73066,-25.730664c14.210651,0 25.730659,11.52001 25.730659,25.730664z" />
        <animateTransform
           id="animateTransform4046"
           repeatCount="indefinite"
           additive="sum"
           dur="18s"
           values="0 32 32; 360 32 32"
           type="rotate"
           attributeType="XML"
           attributeName="transform" />
      </g>
      <path
         style="fill:#eaf4fc;fill-opacity:1"
         d="m55.846397,31.999996c0,13.167984 -10.674763,23.842751 -23.842747,23.842751c-13.167984,0 -23.84275,-10.674763 -23.84275,-23.842751c0,-13.167988 10.674766,-23.842751 23.84275,-23.842751c13.167984,0 23.842747,10.674763 23.842747,23.842751z"
         id="path4614"
         stroke-miterlimit="4"
         stroke-width="0.1"
         fill="#c0c6c9" />
      <path
         d="m54.649193,32c0,12.506783 -10.138752,22.645542 -22.645535,22.645542c-12.506786,0 -22.645542,-10.138756 -22.645542,-22.645542c0,-12.506788 10.138756,-22.645541 22.645542,-22.645541c12.506783,0 22.645535,10.138753 22.645535,22.645541z"
         id="path4610"
         stroke-miterlimit="4"
         stroke-width="0.1"
         fill="#e2041b" />
      <path
         style="fill:#eaf4fc;fill-opacity:1;stroke-width:0.1;stroke-miterlimit:4"
         d="m 52.119581,31.999996 c 0,11.109718 -9.006212,20.115926 -20.115922,20.115926 -11.109718,0 -20.115929,-9.006205 -20.115929,-20.115926 0,-11.109716 9.006211,-20.115922 20.115929,-20.115922 11.10971,0 20.115922,9.006206 20.115922,20.115922 z"
         id="path4589"
         stroke-miterlimit="4"
         inkscape:connector-curvature="0" />
      <path
         d="m50.919422,32c0,10.446884 -8.46888,18.915768 -18.915764,18.915768c-10.446888,0 -18.915768,-8.468876 -18.915768,-18.915768c0,-10.44689 8.46888,-18.915766 18.915768,-18.915766c10.446884,0 18.915764,8.468876 18.915764,18.915766z"
         id="path4566"
         stroke-miterlimit="4"
         stroke-width="0.1"
         fill="#000b00"
         style="fill:#16160e;fill-opacity:1" />
      <path
         inkscape:connector-curvature="0"
         style="fill:#f8fbf8;fill-opacity:1;stroke-width:0.10000000000000001;stroke-miterlimit:4"
         d="m 49.814297,31.999996 c 0,9.836548 -7.974098,17.81065 -17.810638,17.81065 -9.83655,0 -17.810651,-7.974098 -17.810651,-17.81065 0,-9.836546 7.974101,-17.810644 17.810651,-17.810644 9.83654,0 17.810638,7.974098 17.810638,17.810644 z"
         id="path4568"
         stroke-miterlimit="4" />
      <path
         d="m21.0809,42.9105l-4.515301,-10.910198l4.5154,-10.910101l10.9102,-4.515501l10.907101,4.5152l-2.178902,2.178902l-8.728598,-3.615501l-8.730301,3.616201l-3.616199,8.730299l3.616499,8.731001l8.730301,3.616199l8.730701,-3.6161l2.434799,-5.877998l-2.852699,-2.852703l7.114498,0l-4.517101,10.910103l-10.912298,4.519798l-10.9081,-4.5196zm4.4676,-1.651398l4.775,0l0.241001,-0.584801l-0.0002,-5.826702l-9.315901,0l-1.177401,-2.8475l11.451801,0l0.3685,-0.422499l-3.5958,0l-2.8475,-2.847401l13.086199,0l-3.219997,3.266901l4.450798,0.003098l2.850601,2.850502l-9.197701,-0.003101l0,5.8269l0.941299,2.284l-2.3706,0.963799l-6.4401,-2.663197zm-4.120701,-12.536901l1.3517,-3.2651l13.973301,-0.0061l-0.158901,-0.8036l-0.672199,-0.2796c0,0 0.752602,-1.462601 1.128899,-2.194l3.368801,1.395l-1.885201,1.885201l2.6689,0.003099l1.3512,3.2645l-3.175098,0.002401l-0.422401,-0.422501l-13.931398,0l-0.4224,0.422501l-3.175201,-0.001801zm2.135101,-5.1532l3.366499,-1.394001l1.128801,2.192501l-2.611401,1.0804l-1.8839,-1.878901zm6.183899,-2.5597l2.2446,-0.931101l2.244902,0.930101l-0.501701,2.452599l-1.7437,-0.721498l-1.7446,0.722599l-0.4995,-2.4527z"
         id="path3914"
         fill="#000b00"
         style="fill:#16160e;fill-opacity:1" />
    </g>
  </g>
</svg>
